<svg width="154" height="34" viewBox="0 0 154 34" fill="none" xmlns="http://www.w3.org/2000/svg">
<path d="M9.00902 18.6428L0.789807 23.3927C0.361521 23.6402 0.0968018 24.0986 0.0968018 24.5936V33.2024C0.0968018 33.5123 0.432543 33.706 0.701567 33.5511L17.6436 23.7478C17.9083 23.595 17.9126 23.2141 17.6501 23.0548L10.4209 18.6601C9.98827 18.3975 9.44592 18.391 9.00687 18.645L9.00902 18.6428Z" fill="#939393"/>
<path d="M31.0734 18.6235L38.9331 23.3411C39.3507 23.5907 39.6068 24.0427 39.6068 24.5291V33.1378C39.6068 33.4521 39.2646 33.6458 38.9956 33.4822L22.7099 23.6919C22.4538 23.5369 22.4495 23.1667 22.7013 23.0053L29.6206 18.6364C30.064 18.3566 30.6257 18.3501 31.0734 18.6192V18.6235Z" fill="#939393"/>
<path d="M39.6541 0.953989V9.19042C39.6541 9.67251 39.4045 10.118 38.9934 10.372L20.9946 21.4407C20.3081 21.8625 19.4429 21.8647 18.7542 21.4428L0.662875 10.3698C0.251806 10.118 0 9.67036 0 9.18827V0.953989C0 0.641921 0.342198 0.448224 0.60907 0.609638L19.0964 11.6848C19.5161 11.9366 20.039 11.9366 20.4587 11.6848L39.0429 0.607486C39.3119 0.448224 39.652 0.641921 39.652 0.953989H39.6541Z" fill="#939393"/>
<path d="M63.4617 25.7215L57.0051 8.82031H59.9708L65.035 22.6503L70.0991 8.82031H73.0648L66.662 25.7215H63.4595H63.4617Z" fill="#939393"/>
<path d="M79.9948 25.9841C77.7544 25.9841 76.1144 25.4245 75.0749 24.3053C74.0333 23.1862 73.5125 21.585 73.5125 19.5038C73.5125 17.4226 74.0376 15.8214 75.0879 14.7023C76.1381 13.5831 77.7738 13.0236 79.9948 13.0236C82.2159 13.0236 83.8795 13.5831 84.9277 14.7023C85.9779 15.8214 86.5031 17.4226 86.5031 19.5038C86.5031 21.585 85.9822 23.1862 84.9406 24.3053C83.8989 25.4245 82.2503 25.9841 79.9927 25.9841H79.9948ZM79.9948 23.5693C81.3077 23.5693 82.2396 23.2508 82.7905 22.6116C83.3415 21.9724 83.617 20.9372 83.617 19.5017C83.617 18.0661 83.3415 17.0352 82.7905 16.4047C82.2396 15.7741 81.3077 15.4598 79.9948 15.4598C78.682 15.4598 77.7781 15.7741 77.2271 16.4047C76.6762 17.0352 76.4007 18.0661 76.4007 19.5017C76.4007 20.9372 76.6762 21.9724 77.2271 22.6116C77.7781 23.2508 78.7014 23.5693 79.9948 23.5693Z" fill="#939393"/>
<path d="M89.8088 25.7214V13.2817H92.4324L92.5895 14.7259C93.1835 14.3406 93.8937 13.992 94.7158 13.6756C95.538 13.3614 96.3515 13.1418 97.1564 13.0192V15.1972C96.6657 15.2854 96.1363 15.4124 95.5681 15.5781C94.9999 15.7438 94.4619 15.9289 93.954 16.1291C93.446 16.3314 93.0177 16.5358 92.6691 16.7468V25.7214H89.8088Z" fill="#939393"/>
<path d="M104.506 25.984C103.176 25.984 102.184 25.6289 101.527 24.9208C100.871 24.2127 100.544 23.2464 100.544 22.0218V15.5136H98.7059V13.2839H100.544V10.4237L103.378 9.55847V13.2861H106.684L106.501 15.5157H103.378V21.8668C103.378 22.5835 103.544 23.0871 103.878 23.3755C104.209 23.6639 104.751 23.8081 105.505 23.8081C105.976 23.8081 106.475 23.7199 107 23.5456V25.5665C106.318 25.8462 105.487 25.9861 104.508 25.9861L104.506 25.984Z" fill="#939393"/>
<path d="M116.001 25.984C113.832 25.984 112.151 25.4502 110.963 24.3827C109.773 23.3152 109.179 21.6796 109.179 19.4757C109.179 17.4807 109.687 15.9074 110.7 14.7517C111.714 13.596 113.255 13.0192 115.319 13.0192C117.208 13.0192 118.629 13.5142 119.582 14.502C120.536 15.4899 121.013 16.764 121.013 18.32V20.6293H111.908C112.047 21.8367 112.484 22.6674 113.22 23.1215C113.954 23.5757 115.076 23.8038 116.58 23.8038C117.211 23.8038 117.856 23.7435 118.521 23.6209C119.186 23.4982 119.763 23.3411 120.254 23.1495V25.2479C119.694 25.4933 119.051 25.6762 118.325 25.7989C117.6 25.9215 116.825 25.9818 116.003 25.9818L116.001 25.984ZM111.908 18.7677H118.495V17.9025C118.495 17.0459 118.259 16.3766 117.787 15.8945C117.314 15.4124 116.518 15.1735 115.398 15.1735C114.068 15.1735 113.154 15.4619 112.657 16.0387C112.157 16.6155 111.908 17.5259 111.908 18.7677Z" fill="#939393"/>
<path d="M124.319 25.7214V13.2817H126.943L127.1 14.7259C127.694 14.3406 128.404 13.992 129.226 13.6756C130.048 13.3614 130.862 13.1418 131.667 13.0192V15.1972C131.176 15.2854 130.647 15.4124 130.078 15.5781C129.51 15.7438 128.972 15.9289 128.464 16.1291C127.956 16.3314 127.528 16.5358 127.179 16.7468V25.7214H124.319Z" fill="#939393"/>
<path d="M135.551 25.7214V15.4598H133.662L133.924 13.2818H138.412V25.7214H135.551ZM135.315 10.6841V8.32312H138.438V10.6841H135.315Z" fill="#939393"/>
<path d="M141.403 25.7214L146.153 19.3961L141.586 13.2817H144.657L147.701 17.429L150.746 13.2817H153.817L149.276 19.3961L154 25.7214H150.903L147.701 21.3912L144.498 25.7214H141.401H141.403Z" fill="#939393"/>
</svg>
